
<svg width="48" height="48" viewBox="0 0 600 600" fill="none" xmlns="http://www.w3.org/2000/svg">
<path d="M300 0C465.685 0 600 134.315 600 300C600 465.685 465.685 600 300 600C134.315 600 0 465.685 0 300C0 134.315 134.315 0 300 0ZM421.166 165.749C421.148 148.209 405.297 134.939 388.027 138.005C374.551 140.398 364.737 152.12 364.751 165.807L365.023 431.442C365.041 448.981 380.892 462.252 398.161 459.186C411.637 456.793 421.45 445.071 421.437 431.385L421.166 165.749ZM321.517 313.019C321.315 306.994 315.819 302.548 309.886 303.609L235.998 316.827C203.509 322.639 179.825 350.856 179.735 383.861L179.61 430.118C179.561 448.358 195.969 462.235 213.947 459.158C227.909 456.769 238.179 444.758 238.37 430.595L239.087 377.556C239.407 353.843 256.426 333.655 279.742 329.328L313.434 323.076C318.244 322.183 321.68 317.908 321.517 313.019ZM236.99 166.394C237.083 148.685 221.12 135.213 203.68 138.281C190.117 140.667 180.221 152.442 180.206 166.213L180.129 236.507C180.11 254.095 195.996 267.424 213.313 264.35C226.743 261.965 236.549 250.325 236.621 236.687L236.99 166.394Z" fill="#146EF5"/>
</svg>
