<svg width="2303" height="600" viewBox="0 0 2303 600" fill="none" xmlns="http://www.w3.org/2000/svg">
<path d="M1122.75 444.386C1128.61 444.386 1130.64 451.234 1125.26 453.575C1113.89 458.525 1101.08 461 1086.83 461C1072.38 461 1059.38 458.527 1047.85 453.583C1042.44 451.263 1044.45 444.386 1050.34 444.386H1122.75Z" fill="#030303"/>
<path d="M1823.23 444.386C1825.86 444.386 1826.92 447.61 1824.72 449.034C1813.29 456.398 1797.35 460.08 1776.89 460.08C1761.78 460.08 1748.24 457.878 1736.25 453.476C1730.57 451.392 1732.4 444.386 1738.45 444.386H1823.23Z" fill="#030303"/>
<path d="M777.964 450.277C777.964 453.53 775.323 456.168 772.064 456.168H723.9C720.641 456.168 718 453.53 718 450.277C718 447.023 720.641 444.386 723.9 444.386H772.064C775.323 444.386 777.964 447.023 777.964 450.277Z" fill="#030303"/>
<path d="M943.817 450.277C943.817 453.53 941.175 456.168 937.917 456.168H889.515C886.256 456.168 883.615 453.53 883.615 450.277C883.615 447.023 886.256 444.386 889.515 444.386H937.917C941.175 444.386 943.817 447.023 943.817 450.277Z" fill="#030303"/>
<path d="M1223.17 450.277C1223.17 453.53 1220.53 456.168 1217.27 456.168H1170.06C1166.8 456.168 1164.16 453.53 1164.16 450.277C1164.16 447.023 1166.8 444.386 1170.06 444.386H1217.27C1220.53 444.386 1223.17 447.023 1223.17 450.277Z" fill="#030303"/>
<path d="M1336.68 450.277C1336.68 453.53 1334.03 456.168 1330.78 456.168H1282.61C1279.35 456.168 1276.71 453.53 1276.71 450.277C1276.71 447.023 1279.35 444.386 1282.61 444.386H1330.78C1334.03 444.386 1336.68 447.023 1336.68 450.277Z" fill="#030303"/>
<path d="M1490.87 450.277C1490.87 453.53 1488.23 456.168 1484.97 456.168H1438.47C1435.21 456.168 1432.57 453.53 1432.57 450.277C1432.57 447.023 1435.21 444.386 1438.47 444.386H1484.97C1488.23 444.386 1490.87 447.023 1490.87 450.277Z" fill="#030303"/>
<path d="M1646.97 450.277C1646.97 453.53 1644.32 456.168 1641.07 456.168H1592.66C1589.41 456.168 1586.76 453.53 1586.76 450.277C1586.76 447.023 1589.41 444.386 1592.66 444.386H1641.07C1644.32 444.386 1646.97 447.023 1646.97 450.277Z" fill="#030303"/>
<path d="M1910.85 450.277C1910.85 453.53 1908.21 456.168 1904.95 456.168H1857.74C1854.48 456.168 1851.84 453.53 1851.84 450.277C1851.84 447.023 1854.48 444.386 1857.74 444.386H1904.95C1908.21 444.386 1910.85 447.023 1910.85 450.277Z" fill="#030303"/>
<path d="M2023.88 450.277C2023.88 453.53 2021.24 456.168 2017.98 456.168H1969.82C1966.56 456.168 1963.92 453.53 1963.92 450.277C1963.92 447.023 1966.56 444.386 1969.82 444.386H2017.98C2021.24 444.386 2023.88 447.023 2023.88 450.277Z" fill="#030303"/>
<path d="M2137.15 450.277C2137.15 453.53 2134.51 456.168 2131.25 456.168H2083.08C2079.82 456.168 2077.18 453.53 2077.18 450.277C2077.18 447.023 2079.82 444.386 2083.08 444.386H2131.25C2134.51 444.386 2137.15 447.023 2137.15 450.277Z" fill="#030303"/>
<path d="M2303 450.277C2303 453.53 2300.36 456.168 2297.1 456.168H2248.7C2245.44 456.168 2242.8 453.53 2242.8 450.277C2242.8 447.023 2245.44 444.386 2248.7 444.386H2297.1C2300.36 444.386 2303 447.023 2303 450.277Z" fill="#030303"/>
<path d="M777.964 421.046C777.964 424.408 775.235 427.133 771.868 427.133H724.096C720.729 427.133 718 424.408 718 421.046V415.97C718 412.609 720.729 409.884 724.096 409.884H771.868C775.235 409.884 777.964 412.609 777.964 415.97V421.046Z" fill="#030303"/>
<path d="M943.817 421.046C943.817 424.408 941.087 427.133 937.721 427.133H889.711C886.344 427.133 883.615 424.408 883.615 421.046V415.97C883.615 412.609 886.344 409.884 889.711 409.884H937.721C941.087 409.884 943.817 412.609 943.817 415.97V421.046Z" fill="#030303"/>
<path d="M1223.17 421.046C1223.17 424.408 1220.44 427.133 1217.08 427.133H1166C1164.99 427.133 1164.16 426.31 1164.16 425.293C1164.16 423.446 1161.67 422.708 1160.6 424.212C1160.13 424.863 1159.66 425.505 1159.19 426.139C1158.72 426.768 1157.97 427.133 1157.19 427.133H1017.52C1015.56 427.133 1013.71 426.206 1012.63 424.578C1011.24 422.481 1009.95 420.3 1008.74 418.035C1006.73 414.231 1009.66 409.884 1013.97 409.884H1101.63C1103.69 410.056 1105.81 410.145 1108 410.145C1110.14 410.145 1112.23 410.057 1114.27 409.884H1217.08C1220.44 409.884 1223.17 412.609 1223.17 415.97V421.046Z" fill="#030303"/>
<path d="M1336.68 421.046C1336.68 424.408 1333.95 427.133 1330.58 427.133H1282.81C1279.44 427.133 1276.71 424.408 1276.71 421.046V415.97C1276.71 412.609 1279.44 409.884 1282.81 409.884H1330.58C1333.95 409.884 1336.68 412.609 1336.68 415.97V421.046Z" fill="#030303"/>
<path d="M1490.87 421.046C1490.87 424.408 1488.14 427.133 1484.77 427.133H1438.67C1435.3 427.133 1432.57 424.408 1432.57 421.046V415.97C1432.57 412.609 1435.3 409.884 1438.67 409.884H1484.77C1488.14 409.884 1490.87 412.609 1490.87 415.97V421.046Z" fill="#030303"/>
<path d="M1646.97 421.046C1646.97 424.408 1644.24 427.133 1640.87 427.133H1592.86C1589.49 427.133 1586.76 424.408 1586.76 421.046V415.97C1586.76 412.609 1589.49 409.884 1592.86 409.884H1640.87C1644.24 409.884 1646.97 412.609 1646.97 415.97V421.046Z" fill="#030303"/>
<path d="M1910.85 421.046C1910.85 424.408 1908.13 427.133 1904.76 427.133H1854.47C1853.02 427.133 1851.84 425.958 1851.84 424.507V422.48C1851.84 422.149 1851.57 421.881 1851.24 421.881C1851.03 421.881 1850.83 421.998 1850.72 422.187C1850.24 423.028 1849.74 423.857 1849.23 424.676C1848.26 426.233 1846.52 427.133 1844.69 427.133H1703.9C1701.84 427.133 1699.9 426.108 1698.87 424.326C1697.61 422.132 1696.48 419.839 1695.49 417.447C1693.95 413.73 1696.88 409.884 1700.91 409.884H1759.84C1760.98 409.884 1762.1 410.217 1763.1 410.779C1770.51 414.957 1780.03 417.049 1791.64 417.049C1804.69 417.049 1815.64 414.884 1824.5 410.563C1825.39 410.13 1826.36 409.884 1827.35 409.884H1904.76C1908.13 409.884 1910.85 412.609 1910.85 415.97V421.046Z" fill="#030303"/>
<path d="M2023.88 421.046C2023.88 424.408 2021.15 427.133 2017.79 427.133H1970.01C1966.65 427.133 1963.92 424.408 1963.92 421.046V415.97C1963.92 412.609 1966.65 409.884 1970.01 409.884H2017.79C2021.15 409.884 2023.88 412.609 2023.88 415.97V421.046Z" fill="#030303"/>
<path d="M2137.15 421.046C2137.15 424.408 2134.42 427.133 2131.05 427.133H2083.28C2079.91 427.133 2077.18 424.408 2077.18 421.046V415.97C2077.18 412.609 2079.91 409.884 2083.28 409.884H2131.05C2134.42 409.884 2137.15 412.609 2137.15 415.97V421.046Z" fill="#030303"/>
<path d="M2303 421.046C2303 424.408 2300.27 427.133 2296.9 427.133H2248.89C2245.53 427.133 2242.8 424.408 2242.8 421.046V415.97C2242.8 412.609 2245.53 409.884 2248.89 409.884H2296.9C2300.27 409.884 2303 412.609 2303 415.97V421.046Z" fill="#030303"/>
<path d="M777.964 386.544C777.964 389.906 775.235 392.631 771.868 392.631H724.096C720.729 392.631 718 389.906 718 386.544V381.465C718 378.104 720.729 375.378 724.096 375.378H771.868C775.235 375.378 777.964 378.104 777.964 381.465V386.544Z" fill="#030303"/>
<path d="M943.817 386.544C943.817 389.906 941.087 392.631 937.721 392.631H889.711C886.344 392.631 883.615 389.906 883.615 386.544V381.465C883.615 378.104 886.344 375.378 889.711 375.378H937.721C941.087 375.378 943.817 378.104 943.817 381.465V386.544Z" fill="#030303"/>
<path d="M1054.76 375.378C1057.55 375.378 1059.95 377.289 1060.86 379.929C1061.1 380.624 1061.35 381.307 1061.61 381.979C1063.43 386.657 1060.29 392.631 1055.26 392.631H1004.9C1002 392.631 999.484 390.588 999.032 387.724C998.729 385.8 998.467 383.84 998.246 381.844C997.859 378.35 1000.66 375.378 1004.18 375.378H1054.76Z" fill="#030303"/>
<path d="M1223.17 386.544C1223.17 389.906 1220.44 392.631 1217.08 392.631H1163.84C1158.61 392.631 1155.42 386.113 1157.51 381.325C1157.76 380.769 1157.99 380.205 1158.22 379.632C1159.2 377.142 1161.53 375.378 1164.21 375.378H1217.08C1220.44 375.378 1223.17 378.104 1223.17 381.465V386.544Z" fill="#030303"/>
<path d="M1336.68 386.544C1336.68 389.906 1333.95 392.631 1330.58 392.631H1282.81C1279.44 392.631 1276.71 389.906 1276.71 386.544V381.465C1276.71 378.104 1279.44 375.378 1282.81 375.378H1330.58C1333.95 375.378 1336.68 378.104 1336.68 381.465V386.544Z" fill="#030303"/>
<path d="M1490.87 386.544C1490.87 389.906 1488.14 392.631 1484.77 392.631H1438.67C1435.3 392.631 1432.57 389.906 1432.57 386.544V381.465C1432.57 378.104 1435.3 375.378 1438.67 375.378H1484.77C1488.14 375.378 1490.87 378.104 1490.87 381.465V386.544Z" fill="#030303"/>
<path d="M1646.97 386.544C1646.97 389.906 1644.24 392.631 1640.87 392.631H1592.86C1589.49 392.631 1586.76 389.906 1586.76 386.544V381.465C1586.76 378.104 1589.49 375.378 1592.86 375.378H1640.87C1644.24 375.378 1646.97 378.104 1646.97 381.465V386.544Z" fill="#030303"/>
<path d="M1741.56 375.378C1745.88 375.378 1748.95 379.852 1748.66 384.159C1748.6 384.98 1748.57 385.818 1748.57 386.674C1748.57 389.777 1746.24 392.631 1743.13 392.631H1695.69C1692.61 392.631 1690.03 390.218 1690.03 387.134C1690.03 384.939 1690.1 382.804 1690.23 380.729C1690.43 377.665 1693.04 375.378 1696.11 375.378H1741.56Z" fill="#030303"/>
<path d="M1910.85 386.544C1910.85 389.906 1908.13 392.631 1904.76 392.631H1855.26C1850.47 392.631 1847.43 387.25 1848.97 382.719C1849.23 381.946 1849.48 381.165 1849.7 380.376C1850.51 377.526 1853 375.378 1855.97 375.378H1904.76C1908.13 375.378 1910.85 378.104 1910.85 381.465V386.544Z" fill="#030303"/>
<path d="M2023.88 386.544C2023.88 389.906 2021.15 392.631 2017.79 392.631H1970.01C1966.65 392.631 1963.92 389.906 1963.92 386.544V381.465C1963.92 378.104 1966.65 375.378 1970.01 375.378H2017.79C2021.15 375.378 2023.88 378.104 2023.88 381.465V386.544Z" fill="#030303"/>
<path d="M2137.15 386.544C2137.15 389.906 2134.42 392.631 2131.05 392.631H2083.28C2079.91 392.631 2077.18 389.906 2077.18 386.544V381.465C2077.18 378.104 2079.91 375.378 2083.28 375.378H2131.05C2134.42 375.378 2137.15 378.104 2137.15 381.465V386.544Z" fill="#030303"/>
<path d="M2303 386.544C2303 389.906 2300.27 392.631 2296.9 392.631H2248.89C2245.53 392.631 2242.8 389.906 2242.8 386.544V381.465C2242.8 378.104 2245.53 375.378 2248.89 375.378H2296.9C2300.27 375.378 2303 378.104 2303 381.465V386.544Z" fill="#030303"/>
<path d="M777.964 352.039C777.964 355.4 775.235 358.126 771.868 358.126H724.096C720.729 358.126 718 355.4 718 352.039V346.963C718 343.601 720.729 340.876 724.096 340.876H771.868C775.235 340.876 777.964 343.601 777.964 346.963V352.039Z" fill="#030303"/>
<path d="M943.817 352.039C943.817 355.4 941.087 358.126 937.721 358.126H889.711C886.344 358.126 883.615 355.4 883.615 352.039V346.963C883.615 343.601 886.344 340.876 889.711 340.876H937.721C941.087 340.876 943.817 343.601 943.817 346.963V352.039Z" fill="#030303"/>
<path d="M1057.32 355.839C1057.32 357.094 1056.31 358.126 1055.06 358.126H1003.45C1000.09 358.126 997.356 355.4 997.356 352.039V346.963C997.356 343.601 1000.09 340.876 1003.45 340.876H1051.22C1054.59 340.876 1057.32 343.601 1057.32 346.963V355.839Z" fill="#030303"/>
<path d="M1223.17 352.039C1223.17 355.4 1220.44 358.126 1217.08 358.126H1169.25C1165.72 358.126 1162.94 355.139 1162.97 351.614C1162.97 351.26 1162.97 350.904 1162.97 350.546V346.963C1162.97 343.601 1165.7 340.876 1169.07 340.876H1217.08C1220.44 340.876 1223.17 343.601 1223.17 346.963V352.039Z" fill="#030303"/>
<path d="M1336.68 352.039C1336.68 355.4 1333.95 358.126 1330.58 358.126H1282.81C1279.44 358.126 1276.71 355.4 1276.71 352.039V346.963C1276.71 343.601 1279.44 340.876 1282.81 340.876H1330.58C1333.95 340.876 1336.68 343.601 1336.68 346.963V352.039Z" fill="#030303"/>
<path d="M1490.87 352.039C1490.87 355.4 1488.14 358.126 1484.77 358.126H1438.67C1435.3 358.126 1432.57 355.4 1432.57 352.039V346.963C1432.57 343.601 1435.3 340.876 1438.67 340.876H1484.77C1488.14 340.876 1490.87 343.601 1490.87 346.963V352.039Z" fill="#030303"/>
<path d="M1646.97 352.039C1646.97 355.4 1644.24 358.126 1640.87 358.126H1592.86C1589.49 358.126 1586.76 355.4 1586.76 352.039V346.963C1586.76 343.601 1589.49 340.876 1592.86 340.876H1640.87C1644.24 340.876 1646.97 343.601 1646.97 346.963V352.039Z" fill="#030303"/>
<path d="M1829.6 340.876C1834.65 340.876 1835.38 345.461 1830.43 346.404C1819.96 348.245 1808.54 350.086 1796.16 351.927C1787.76 353.131 1780.06 355.058 1773.08 357.707C1772.37 357.979 1771.61 358.126 1770.84 358.126H1704.39C1700.03 358.126 1697.11 353.666 1699.53 350.04C1700.83 348.091 1702.27 346.266 1703.84 344.563C1704.47 343.881 1705.11 343.212 1705.77 342.554C1706.86 341.458 1708.36 340.876 1709.91 340.876H1829.6Z" fill="#030303"/>
<path d="M1910.85 352.039C1910.85 355.4 1908.13 358.126 1904.76 358.126H1857.7C1854.33 358.126 1851.6 355.4 1851.6 352.039V346.963C1851.6 343.601 1854.33 340.876 1857.7 340.876H1904.76C1908.13 340.876 1910.85 343.601 1910.85 346.963V352.039Z" fill="#030303"/>
<path d="M2023.88 352.039C2023.88 355.4 2021.15 358.126 2017.79 358.126H1970.01C1966.65 358.126 1963.92 355.4 1963.92 352.039V346.963C1963.92 343.601 1966.65 340.876 1970.01 340.876H2017.79C2021.15 340.876 2023.88 343.601 2023.88 346.963V352.039Z" fill="#030303"/>
<path d="M2137.15 352.039C2137.15 355.4 2134.42 358.126 2131.05 358.126H2083.28C2079.91 358.126 2077.18 355.4 2077.18 352.039V346.963C2077.18 343.601 2079.91 340.876 2083.28 340.876H2131.05C2134.42 340.876 2137.15 343.601 2137.15 346.963V352.039Z" fill="#030303"/>
<path d="M2303 352.039C2303 355.4 2300.27 358.126 2296.9 358.126H2248.89C2245.53 358.126 2242.8 355.4 2242.8 352.039V346.963C2242.8 343.601 2245.53 340.876 2248.89 340.876H2296.9C2300.27 340.876 2303 343.601 2303 346.963V352.039Z" fill="#030303"/>
<path d="M777.964 228.179C777.964 234.248 786.572 237.029 790.871 232.738C807.171 216.471 828.251 208.337 854.109 208.337C880.442 208.337 901.937 216.545 918.594 232.959C935.409 249.374 943.817 273.152 943.817 304.294V317.536C943.817 320.898 941.087 323.623 937.721 323.623H889.711C886.344 323.623 883.615 320.898 883.615 317.536V313.498C883.615 295.703 879.173 282.203 870.289 272.999C861.406 263.794 848.953 259.192 832.931 259.192C817.226 259.192 804.139 263.948 793.669 273.459C783.199 282.97 777.964 298.081 777.964 318.791C777.964 321.46 775.797 323.623 773.124 323.623H724.096C720.729 323.623 718 320.898 718 317.536V147.47C718 145.179 719.288 143.082 721.334 142.044L769.105 117.797C773.161 115.739 777.964 118.681 777.964 123.223V228.179Z" fill="#030303"/>
<path d="M1057.32 317.536C1057.32 320.898 1054.59 323.623 1051.22 323.623H1003.45C1000.09 323.623 997.356 320.898 997.356 317.536V247.339C997.356 245.047 998.644 242.951 1000.69 241.912L1048.46 217.666C1052.52 215.607 1057.32 218.549 1057.32 223.092V317.536Z" fill="#030303"/>
<path d="M1223.17 317.536C1223.17 320.898 1220.44 323.623 1217.08 323.623H1169.07C1165.7 323.623 1162.97 320.898 1162.97 317.536V247.345C1162.97 245.051 1164.26 242.951 1166.31 241.915L1214.32 217.644C1218.38 215.594 1223.17 218.536 1223.17 223.074V317.536Z" fill="#030303"/>
<path d="M1562.73 208.337C1586.53 208.337 1606.51 215.778 1622.69 230.658C1638.88 245.539 1646.97 267.246 1646.97 295.78V317.536C1646.97 320.898 1644.24 323.623 1640.87 323.623H1592.86C1589.49 323.623 1586.76 320.898 1586.76 317.536V304.064C1586.76 287.956 1582.16 276.22 1572.96 268.857C1563.92 261.34 1552.97 257.581 1540.13 257.581C1524.9 257.581 1512.84 262.183 1503.96 271.388C1495.23 280.592 1490.87 292.481 1490.87 307.055V317.536C1490.87 320.898 1488.14 323.623 1484.77 323.623H1438.67C1435.3 323.623 1432.57 320.898 1432.57 317.536V301.302C1432.57 288.109 1428.29 277.524 1419.72 269.547C1411.15 261.57 1400.21 257.581 1386.88 257.581C1373.4 257.581 1361.66 262.183 1351.67 271.388C1341.67 280.439 1336.68 293.709 1336.68 311.197V317.536C1336.68 320.898 1333.95 323.623 1330.58 323.623H1282.81C1279.44 323.623 1276.71 320.898 1276.71 317.536V247.284C1276.71 245.021 1277.97 242.946 1279.97 241.894L1325.84 217.851C1329.9 215.723 1334.77 218.662 1334.77 223.24V228.825C1334.77 235.285 1345.15 238.169 1349.57 233.459C1354.56 228.158 1360.18 223.696 1366.42 220.073C1379.9 212.249 1394.58 208.337 1410.44 208.337C1427.41 208.337 1442.41 212.556 1455.41 220.993C1464.16 226.564 1471.15 233.417 1476.38 241.553C1479.29 246.073 1486.95 246.397 1490.14 242.074C1496.32 233.709 1504.26 226.682 1513.95 220.993C1528.07 212.556 1544.33 208.337 1562.73 208.337Z" fill="#030303"/>
<path d="M1806.63 208.337C1839.31 208.337 1864.85 215.701 1883.25 230.428C1901.65 245.155 1910.85 265.175 1910.85 290.487V317.536C1910.85 320.898 1908.13 323.623 1904.76 323.623H1740.43C1739.73 323.623 1739.57 322.679 1740.24 322.473C1755.31 317.87 1771.49 314.726 1788.79 313.038C1812.1 310.43 1828.36 308.129 1837.57 306.135C1846.77 304.14 1851.37 299.001 1851.37 290.717V288.876C1851.37 278.445 1847.24 269.931 1838.99 263.334C1830.9 256.737 1819.72 253.439 1805.44 253.439C1790.85 253.439 1778.95 256.737 1769.75 263.334C1762.39 268.7 1757.77 275.283 1755.87 283.084C1755.12 286.175 1752.54 288.646 1749.35 288.646H1703.64C1700.13 288.646 1697.33 285.691 1697.78 282.217C1700.56 261.084 1710.74 243.821 1728.35 230.428C1747.7 215.701 1773.79 208.337 1806.63 208.337Z" fill="#030303"/>
<path d="M2023.88 317.536C2023.88 320.898 2021.15 323.623 2017.79 323.623H1970.01C1966.65 323.623 1963.92 320.898 1963.92 317.536V247.339C1963.92 245.047 1965.21 242.951 1967.25 241.912L2015.02 217.666C2019.08 215.607 2023.88 218.549 2023.88 223.092V317.536Z" fill="#030303"/>
<path d="M2213.29 208.337C2239.63 208.337 2261.12 216.545 2277.78 232.959C2294.59 249.374 2303 273.152 2303 304.294V317.536C2303 320.898 2300.27 323.623 2296.9 323.623H2248.89C2245.53 323.623 2242.8 320.898 2242.8 317.536V313.498C2242.8 295.703 2238.36 282.203 2229.47 272.999C2220.59 263.794 2208.14 259.192 2192.11 259.192C2176.41 259.192 2163.32 263.948 2152.85 273.459C2142.38 282.97 2137.15 298.081 2137.15 318.791C2137.15 321.46 2134.98 323.623 2132.31 323.623H2083.28C2079.91 323.623 2077.18 320.898 2077.18 317.536V247.311C2077.18 245.035 2078.46 242.948 2080.48 241.903L2127.3 217.756C2131.36 215.664 2136.2 218.605 2136.2 223.165V229.097C2136.2 235.223 2144.98 237.987 2149.26 233.595C2165.66 216.757 2187 208.337 2213.29 208.337Z" fill="#030303"/>
<path d="M1993.9 111C2004.05 111 2012.54 114.145 2019.36 120.435C2026.18 126.724 2029.59 134.548 2029.59 143.906C2029.59 153.264 2026.18 161.164 2019.36 167.607C2012.54 173.897 2004.05 177.042 1993.9 177.042C1983.59 177.042 1975.02 173.897 1968.2 167.607C1961.38 161.164 1957.97 153.264 1957.97 143.906C1957.97 134.548 1961.38 126.724 1968.2 120.435C1975.02 114.145 1983.59 111 1993.9 111Z" fill="#030303"/>
<path d="M300 0C465.685 0 600 134.315 600 300C600 465.685 465.685 600 300 600C134.315 600 0 465.685 0 300C0 134.315 134.315 0 300 0ZM421.166 165.749C421.148 148.209 405.297 134.939 388.027 138.005C374.551 140.398 364.737 152.12 364.751 165.807L365.023 431.442C365.041 448.981 380.892 462.252 398.161 459.186C411.637 456.793 421.45 445.071 421.437 431.385L421.166 165.749ZM321.517 313.019C321.315 306.994 315.819 302.548 309.886 303.609L235.998 316.827C203.509 322.639 179.825 350.856 179.735 383.861L179.61 430.118C179.561 448.358 195.969 462.235 213.947 459.158C227.909 456.769 238.179 444.758 238.37 430.595L239.087 377.556C239.407 353.843 256.426 333.655 279.742 329.328L313.434 323.076C318.244 322.183 321.68 317.908 321.517 313.019ZM236.99 166.394C237.083 148.685 221.12 135.213 203.68 138.281C190.117 140.667 180.221 152.442 180.206 166.213L180.129 236.507C180.11 254.095 195.996 267.424 213.313 264.35C226.743 261.965 236.549 250.325 236.621 236.687L236.99 166.394Z" fill="#146EF5"/>
</svg>
